PathFileType	4	(X/Y/Z)	C:\Users\italobelli\Desktop\GitHub\PTbot_officialCBL\Personal_Results\FLX03_noisy1.trc
DataRate	CameraRate	NumFrames	NumMarkers	Units	OrigDataRate	OrigDataStartFrame	OrigNumFrames
106.125000	106.125000	21	9	m	106.125000	426	850
Frame#	Time		gu		centelbow		EpL		centpxt8		centijc7		ij		ts		aa		ai
			X1	Y1	Z1	X2	Y2	Z2	X3	Y3	Z3	X4	Y4	Z4	X5	Y5	Z5	X6	Y6	Z6	X7	Y7	Z7	X8	Y8	Z8	X9	Y9	Z9

426	4.0047	-0.10522	0.064924	0.10163	-0.015045	0.28908	0.19911	-0.039799	0.30163	0.1827	-0.046816	-0.15316	-0.008669	-0.046816	0.031938	-0.008669	0	0	0	-0.13896	-0.020407	0.054469	-0.14043	0.087072	0.10616	-0.11774	-0.063749	0.15722
427	4.0141	-0.10512	0.064912	0.10177	-0.014015	0.28854	0.19947	-0.038754	0.30121	0.18311	-0.046816	-0.15316	-0.008669	-0.046816	0.031938	-0.008669	0	0	0	-0.13911	-0.02028	0.054445	-0.14028	0.08711	0.10633	-0.11783	-0.063861	0.15709
428	4.0236	-0.10503	0.064894	0.10191	-0.012968	0.28796	0.19982	-0.037691	0.30075	0.18352	-0.046816	-0.15316	-0.008669	-0.046816	0.031938	-0.008669	0	0	0	-0.13926	-0.020151	0.054416	-0.14014	0.087142	0.1065	-0.11792	-0.063979	0.15695
429	4.033	-0.10493	0.06487	0.10205	-0.011904	0.28734	0.20017	-0.03661	0.30026	0.18392	-0.046816	-0.15316	-0.008669	-0.046816	0.031938	-0.008669	0	0	0	-0.13941	-0.020019	0.054381	-0.13999	0.087169	0.10668	-0.11802	-0.064102	0.1568
430	4.0424	-0.10483	0.064839	0.1022	-0.010823	0.28668	0.20051	-0.035511	0.29972	0.18432	-0.046816	-0.15316	-0.008669	-0.046816	0.031938	-0.008669	0	0	0	-0.13957	-0.019885	0.054341	-0.13983	0.087191	0.10686	-0.11811	-0.064229	0.15664
431	4.0518	-0.10473	0.064803	0.10235	-0.0097258	0.28599	0.20085	-0.034395	0.29915	0.18473	-0.046816	-0.15316	-0.008669	-0.046816	0.031938	-0.008669	0	0	0	-0.13973	-0.019749	0.054295	-0.13968	0.087209	0.10704	-0.11819	-0.064362	0.15646
432	4.0612	-0.10463	0.064761	0.1025	-0.0086133	0.28526	0.20118	-0.033263	0.29855	0.18512	-0.046816	-0.15316	-0.008669	-0.046816	0.031938	-0.008669	0	0	0	-0.13989	-0.01961	0.054245	-0.13952	0.087222	0.10722	-0.11828	-0.064499	0.15628
433	4.0707	-0.10452	0.064714	0.10265	-0.0074857	0.28449	0.20151	-0.032115	0.29791	0.18552	-0.046816	-0.15316	-0.008669	-0.046816	0.031938	-0.008669	0	0	0	-0.14006	-0.019469	0.05419	-0.13936	0.08723	0.10741	-0.11837	-0.064641	0.15609
434	4.0801	-0.10441	0.064661	0.1028	-0.0063436	0.28369	0.20184	-0.030951	0.29724	0.18591	-0.046816	-0.15316	-0.008669	-0.046816	0.031938	-0.008669	0	0	0	-0.14023	-0.019326	0.054131	-0.13919	0.087235	0.10759	-0.11845	-0.064788	0.15588
435	4.0895	-0.1043	0.064603	0.10296	-0.0051875	0.28286	0.20216	-0.029772	0.29653	0.18631	-0.046816	-0.15316	-0.008669	-0.046816	0.031938	-0.008669	0	0	0	-0.1404	-0.019181	0.054068	-0.13903	0.087234	0.10778	-0.11854	-0.064939	0.15567
436	4.0989	-0.10418	0.064541	0.10312	-0.004018	0.28199	0.20248	-0.028578	0.29579	0.1867	-0.046816	-0.15316	-0.008669	-0.046816	0.031938	-0.008669	0	0	0	-0.14057	-0.019034	0.054	-0.13886	0.08723	0.10797	-0.11862	-0.065094	0.15545
437	4.1084	-0.10407	0.064473	0.10328	-0.0028357	0.28109	0.2028	-0.02737	0.29502	0.18709	-0.046816	-0.15316	-0.008669	-0.046816	0.031938	-0.008669	0	0	0	-0.14074	-0.018885	0.053929	-0.13869	0.087222	0.10816	-0.11871	-0.065253	0.15522
438	4.1178	-0.10395	0.064401	0.10344	-0.0016409	0.28015	0.20312	-0.026148	0.29422	0.18748	-0.046816	-0.15316	-0.008669	-0.046816	0.031938	-0.008669	0	0	0	-0.14092	-0.018735	0.053855	-0.13851	0.08721	0.10836	-0.11879	-0.065417	0.15498
439	4.1272	-0.10383	0.064324	0.1036	-0.00043431	0.27919	0.20343	-0.024913	0.29339	0.18787	-0.046816	-0.15316	-0.008669	-0.046816	0.031938	-0.008669	0	0	0	-0.14109	-0.018583	0.053777	-0.13834	0.087194	0.10856	-0.11887	-0.065584	0.15473
440	4.1366	-0.10371	0.064243	0.10377	0.0007836	0.27819	0.20374	-0.023666	0.29252	0.18825	-0.046816	-0.15316	-0.008669	-0.046816	0.031938	-0.008669	0	0	0	-0.14127	-0.018429	0.053696	-0.13816	0.087175	0.10875	-0.11895	-0.065755	0.15448
441	4.1461	-0.10358	0.064158	0.10393	0.0020123	0.27716	0.20405	-0.022406	0.29163	0.18864	-0.046816	-0.15316	-0.008669	-0.046816	0.031938	-0.008669	0	0	0	-0.14145	-0.018274	0.053613	-0.13798	0.087152	0.10895	-0.11903	-0.06593	0.15422
442	4.1555	-0.10346	0.064069	0.1041	0.0032513	0.27611	0.20435	-0.021135	0.29071	0.18903	-0.046816	-0.15316	-0.008669	-0.046816	0.031938	-0.008669	0	0	0	-0.14164	-0.018117	0.053526	-0.1378	0.087125	0.10916	-0.11911	-0.066108	0.15395
443	4.1649	-0.10333	0.063976	0.10428	0.0045	0.27502	0.20466	-0.019852	0.28977	0.18942	-0.046816	-0.15316	-0.008669	-0.046816	0.031938	-0.008669	0	0	0	-0.14182	-0.017959	0.053438	-0.13761	0.087095	0.10936	-0.11919	-0.06629	0.15367
444	4.1743	-0.1032	0.06388	0.10445	0.0057579	0.27391	0.20496	-0.018558	0.28879	0.1898	-0.046816	-0.15316	-0.008669	-0.046816	0.031938	-0.008669	0	0	0	-0.142	-0.0178	0.053347	-0.13742	0.087062	0.10957	-0.11927	-0.066474	0.15339
445	4.1837	-0.10307	0.06378	0.10462	0.0070244	0.27276	0.20527	-0.017255	0.28779	0.19019	-0.046816	-0.15316	-0.008669	-0.046816	0.031938	-0.008669	0	0	0	-0.14219	-0.01764	0.053255	-0.13724	0.087026	0.10977	-0.11935	-0.066662	0.15311
446	4.1932	-0.10294	0.063677	0.1048	0.0082991	0.27159	0.20557	-0.015941	0.28677	0.19058	-0.046816	-0.15316	-0.008669	-0.046816	0.031938	-0.008669	0	0	0	-0.14238	-0.017479	0.05316	-0.13705	0.086987	0.10998	-0.11943	-0.066853	0.15281
